<svg width="60" height="60" fill="none" xmlns="http://www.w3.org/2000/svg"><path d="M58.242 3.516a1.757 1.757 0 100-3.516H30a1.757 1.757 0 100 3.516h8.79V14.18h-1.76c-.467 0-.913.185-1.242.515l-7.032 7.031c-.33.33-.515.776-.515 1.243V30c0 .467.186.913.515 1.243L33.516 36v-4.97l-1.758-1.758v-5.575l6.001-6.002h12.724l6.001 6.002v5.575l-1.757 1.758v4.971l4.758-4.758c.33-.33.515-.776.515-1.243v-7.031c0-.467-.185-.914-.515-1.243l-7.031-7.031a1.756 1.756 0 00-1.243-.515h-1.758V3.516h8.79zm-5.39 42.422H7.148C3.265 45.938 0 49.084 0 52.968 0 56.853 3.265 60 7.148 60h45.704C56.735 60 60 56.852 60 52.969c0-3.884-3.265-7.032-7.148-7.032zM8.906 54.725a1.758 1.758 0 110-3.515 1.758 1.758 0 010 3.515zm7.031 0a1.758 1.758 0 110-3.515 1.758 1.758 0 010 3.515zm7.032 0a1.758 1.758 0 110-3.515 1.758 1.758 0 010 3.515zm7.031 0a1.758 1.758 0 110-3.515 1.758 1.758 0 010 3.515zm7.031 0a1.758 1.758 0 110-3.515 1.758 1.758 0 010 3.515zm7.032 0a1.758 1.758 0 110-3.515 1.758 1.758 0 010 3.515zm7.03 0a1.758 1.758 0 110-3.515 1.758 1.758 0 010 3.515zM21.21 28.242H10.665c-.972 0-1.758.786-1.758 1.758v12.422H22.97V30c0-.972-.787-1.758-1.758-1.758z" fill="#BB1219"/><path d="M49.453 28.242H38.79c-.971 0-1.758.786-1.758 1.758v12.422h14.18V30c0-.972-.786-1.758-1.758-1.758z" fill="#BB1219"/></svg>