<svg width="60" height="60" fill="none" xmlns="http://www.w3.org/2000/svg"><g clip-path="url(#clip0)" fill="#BB1219"><path d="M5.273 24.61h16.85l6.517 6.516a1.757 1.757 0 003-1.243v-5.274h4.102a5.28 5.28 0 005.274-5.273V5.273A5.28 5.28 0 0035.742 0H5.273A5.28 5.28 0 000 5.273v14.063a5.28 5.28 0 005.273 5.273zM8.79 7.03h23.438a1.758 1.758 0 010 3.516H8.789a1.758 1.758 0 010-3.516zm0 7.032h23.438a1.758 1.758 0 010 3.515H8.789a1.758 1.758 0 010-3.515zm15.233 25.782H22.09a8.74 8.74 0 00-1.283-3.086l1.371-1.371a1.758 1.758 0 10-2.485-2.486l-1.372 1.371a8.734 8.734 0 00-3.085-1.282v-1.935a1.758 1.758 0 00-3.516 0v1.934a8.738 8.738 0 00-3.086 1.283l-1.371-1.371a1.758 1.758 0 00-2.486 2.486l1.372 1.371a8.736 8.736 0 00-1.283 3.086H2.93a1.758 1.758 0 000 3.515h1.934a8.74 8.74 0 001.283 3.086l-1.371 1.371a1.758 1.758 0 102.486 2.486l1.371-1.371a8.737 8.737 0 003.086 1.283v1.934a1.758 1.758 0 003.515 0v-1.934a8.739 8.739 0 003.086-1.283l1.371 1.371a1.75 1.75 0 001.243.515 1.758 1.758 0 001.243-3l-1.371-1.372a8.736 8.736 0 001.283-3.086h1.934a1.758 1.758 0 000-3.515zm-10.546 3.515a1.758 1.758 0 110-3.515 1.758 1.758 0 010 3.515zm45.643 3.285l-1.44-.832a13.19 13.19 0 00.102-1.632c0-.54-.034-1.085-.103-1.632l1.442-.833a1.758 1.758 0 00.643-2.4l-3.516-6.09a1.758 1.758 0 00-2.4-.644l-1.448.836a13.292 13.292 0 00-2.821-1.64v-1.66c0-.97-.787-1.758-1.758-1.758H40.79c-.97 0-1.758.787-1.758 1.758v1.66c-1 .426-1.943.975-2.82 1.64l-1.448-.836a1.758 1.758 0 00-2.401.644l-3.516 6.09a1.758 1.758 0 00.643 2.4l1.442.832a13.19 13.19 0 00-.103 1.633c0 .539.035 1.084.103 1.632l-1.441.832a1.758 1.758 0 00-.644 2.401l3.516 6.09a1.758 1.758 0 002.401.643l1.447-.836a13.254 13.254 0 002.821 1.64v1.66c0 .971.787 1.758 1.758 1.758h7.031c.971 0 1.758-.787 1.758-1.758v-1.66c1-.426 1.943-.974 2.82-1.64l1.448.836a1.758 1.758 0 002.401-.643l3.516-6.09a1.758 1.758 0 00-.643-2.401zm-14.814 2.81a5.28 5.28 0 01-5.274-5.274 5.28 5.28 0 015.274-5.274 5.28 5.28 0 015.273 5.274 5.28 5.28 0 01-5.273 5.273z"/></g><defs><clipPath id="clip0"><path fill="#fff" d="M0 0h60v60H0z"/></clipPath></defs></svg>