<svg width="60" height="60" fill="none" xmlns="http://www.w3.org/2000/svg"><path d="M6.79 38.039c-3.744 0-6.79 3.065-6.79 6.833 0 1.192.312 2.368.901 3.4.028.048.053.098.077.148l4.867 8.708a.782.782 0 001.35.03l5.226-8.468.2-.32.03-.049.021-.038a6.86 6.86 0 00.908-3.411c0-3.768-3.046-6.833-6.79-6.833zm0 9.582a2.742 2.742 0 01-2.733-2.75A2.741 2.741 0 016.79 42.12a2.742 2.742 0 012.733 2.75c0 1.52-1.224 2.75-2.733 2.75z" fill="#BB1219"/><path d="M52.83 26.195h-.043a1.99 1.99 0 01-1.693-1.021l-7.242-12.959a2.037 2.037 0 01-.066-.128 10.899 10.899 0 01-1.04-7.833 43.205 43.205 0 00-4.967-1.582c.13 3.207-.727 6.325-2.496 9.053-1.775 2.738-4.38 4.961-7.534 6.43a33.81 33.81 0 01-1.824.764c-1.42.563-2.76 1.095-3.594 2.005-.465.508-.84 1.212-1.238 1.958-.41.77-.875 1.643-1.52 2.436-1.372 1.685-3.481 2.889-5.94 3.388-2.457.498-4.557.528-6.422.091-2.317-.543-3.058-.203-3.711.096-.294.134-.626.286-1.033.38-.048.01-.295.056-.612.112-.023.48-.036.962-.036 1.447 0 1.16.144 2.793.328 4.257a10.654 10.654 0 014.643-1.06c5.941 0 10.774 4.864 10.774 10.843a10.895 10.895 0 01-1.459 5.449l-.029.049-.085.14c-.025.038-.071.113-.187.3l-2.162 3.503c1.12.81 2.06 1.418 3.307 2.079 1.046-.774.318-.237 1.046-.774 2.107-1.552 4.551-4.546 5.043-6.985.522-2.592.386-5.299.242-8.164l-.031-.634c-.111-2.264-.154-4.476.535-6.636.887-2.78 2.947-4.87 5.377-5.453 2.507-.602 4.764.38 6.757 1.246.398.173.775.337 1.145.485 4.422 1.767 9.496 1.542 13.904 1.192l.727-.058c2.63-.214 5.345-.434 8.091 0-.037-3.343-.918-7.266-2.075-10.526l-3.187 5.164a1.99 1.99 0 01-1.692.947z" fill="#BB1219"/><path d="M8.114 24.892c1.298.304 2.845.266 4.73-.117 1.56-.317 2.855-1.026 3.645-1.997.4-.492.736-1.123 1.093-1.791.474-.89 1.011-1.9 1.82-2.781 1.453-1.586 3.37-2.346 5.062-3.017.569-.226 1.107-.439 1.612-.674 5.144-2.394 8.082-7.037 7.696-12.12a6.978 6.978 0 01-.02-.516 22.398 22.398 0 00-2.949-.215C16.777 1.664 5.08 11.69 2.397 25.008c1.206-.474 2.822-.795 5.717-.116zM59.07 10.283l.023-.04A6.86 6.86 0 0060 6.834C60 3.065 56.954 0 53.21 0s-6.79 3.065-6.79 6.833a6.86 6.86 0 00.902 3.4c.027.048.053.097.076.148l4.867 8.708a.782.782 0 001.35.03l5.227-8.468.199-.32.03-.048zm-5.86-.701a2.742 2.742 0 01-2.733-2.75 2.742 2.742 0 012.733-2.751 2.742 2.742 0 012.733 2.75 2.741 2.741 0 01-2.733 2.751zm6.169 25.022c-2.342-.406-4.781-.208-7.364.003l-.735.06c-4.855.384-10.47.62-15.688-1.464-.425-.17-.847-.353-1.255-.53-1.56-.679-3.034-1.32-4.252-1.027-1.067.256-2.05 1.346-2.507 2.778-.485 1.52-.446 3.26-.35 5.214l.031.628c.15 2.987.306 6.077-.317 9.165-.631 3.132-3.013 6.72-5.773 8.852C24.216 59.379 27.479 60 30.803 60c14.73 0 26.894-11.059 28.741-25.376a2.03 2.03 0 01-.165-.02z" fill="#BB1219"/></svg>