<svg width="60" height="60" fill="none" xmlns="http://www.w3.org/2000/svg"><path d="M41.8 47.678a3.213 3.213 0 01-2.586-1.264 3.164 3.164 0 01-.621.012v11.967l2.571-1.928a1.07 1.07 0 011.286 0l2.571 1.928V46.426a3.14 3.14 0 01-.643-.012 3.214 3.214 0 01-2.578 1.264zM0 49.821a3.214 3.214 0 003.214 3.215h33.24V48.75H0v1.071zm46.404-10.692a1.07 1.07 0 01-.609-1.47 1.115 1.115 0 00-1.479-1.488 1.072 1.072 0 01-1.47-.608 1.11 1.11 0 00-2.094 0 1.072 1.072 0 01-1.471.608 1.114 1.114 0 00-1.479 1.489 1.071 1.071 0 01-.608 1.469 1.115 1.115 0 000 2.1 1.07 1.07 0 01.608 1.47 1.113 1.113 0 001.479 1.487 1.073 1.073 0 011.47.608 1.11 1.11 0 002.094 0 1.073 1.073 0 011.471-.608 1.114 1.114 0 001.48-1.487 1.07 1.07 0 01.608-1.47 1.116 1.116 0 000-2.1z" fill="#BB1219"/><path d="M8.571 4.821v41.786h27.883v-1.19a3.22 3.22 0 01-.883-2.656 3.272 3.272 0 010-5.165 3.268 3.268 0 013.643-3.653 3.263 3.263 0 015.16 0 3.268 3.268 0 013.643 3.653 3.272 3.272 0 010 5.165 3.213 3.213 0 01-.857 2.625v7.453a3.18 3.18 0 001.054.197 3.215 3.215 0 003.214-3.215v-45a5.45 5.45 0 01.101-.994c.02-.102.05-.198.075-.298a5.43 5.43 0 01.2-.643 5.36 5.36 0 01.443-.878c.056-.09.107-.181.17-.267.03-.044.053-.092.085-.134H11.786A3.214 3.214 0 008.57 4.821zm37.5 22.5H27.857V25.18h18.214v2.143zm0-5.357H21.428v-2.142h24.643v2.142zM33.214 8.036H37.5v2.143h-4.286V8.036zm-10.714 0h8.571v2.143H22.5V8.036zm-3.214 5.357h21.428v2.143H19.286v-2.143zm-5.358 6.428h5.358v2.143h-5.358v-2.142zm0 5.358h11.786v2.143H13.928v-2.143zm0 5.357h21.429v2.143H13.928v-2.143zm0 5.357h18.215v2.143H13.928v-2.143zM56.786 1.607a3.214 3.214 0 00-3.215 3.214v1.072H60V4.82a3.214 3.214 0 00-3.214-3.214z" fill="#BB1219"/></svg>