<svg width="60" height="60" fill="none" xmlns="http://www.w3.org/2000/svg"><path d="M10.548 52.969v6.853A8.813 8.813 0 0017.4 52.97h-6.853zm21.208 0v6.853a8.813 8.813 0 006.854-6.853h-6.854z" fill="#BB1219"/><path d="M58.24 38.906h-5.273V30c0-.972-.786-1.758-1.757-1.758H31.756v-5.39h8.79c.971 0 1.757-.787 1.757-1.758v-3.516h-24.61v3.516c0 .971.787 1.758 1.759 1.758h8.789v5.39H8.79c-.972 0-1.758.786-1.758 1.758v8.906H1.76c-.972 0-1.758.787-1.758 1.758v17.578A1.755 1.755 0 001.759 60h5.273v-8.79c0-.97.786-1.757 1.758-1.757h8.79v-8.789c0-.971-.787-1.758-1.759-1.758h-5.273v-7.148H28.24v7.148h-5.274c-.971 0-1.757.787-1.757 1.758v17.578c0 .972.786 1.758 1.757 1.758h5.274v-8.79c0-.97.786-1.757 1.758-1.757h8.789v-8.789c0-.971-.786-1.758-1.758-1.758h-5.274v-7.148h17.696v7.148h-5.274c-.971 0-1.758.787-1.758 1.758v17.578c0 .972.787 1.758 1.758 1.758h5.274v-8.79c0-.97.786-1.757 1.758-1.757h8.789v-8.789c0-.971-.787-1.758-1.758-1.758z" fill="#BB1219"/><path d="M59.82 52.969h-6.853v6.853a8.813 8.813 0 006.854-6.853zM17.694 8.79h24.61v5.273h-24.61V8.788zm24.609-7.032C42.303.786 41.517 0 40.545 0H19.452c-.972 0-1.758.786-1.758 1.758v3.515h24.61V1.758z" fill="#BB1219"/></svg>