<svg width="60" height="60" fill="none" xmlns="http://www.w3.org/2000/svg"><g clip-path="url(#clip0)" fill="#BB1219"><path d="M16.267 45.526l-5.073-.738-2.27-4.597H7.717l-2.269 4.597-5.074.738L0 46.676l3.671 3.578-.866 5.053.977.71 4.538-2.386 4.538 2.386.978-.71-.867-5.053 3.672-3.579-.374-1.15zM60 46.675l-.373-1.15-5.074-.737-2.269-4.597h-1.209l-2.269 4.597-5.073.738-.374 1.15 3.672 3.578-.867 5.053.978.71 4.538-2.386 4.538 2.386.977-.71-.866-5.053L60 46.675zm-22.053-1.149l-5.074-.738-2.269-4.597h-1.208l-2.27 4.597-5.073.738-.373 1.15 3.67 3.578-.866 5.053.978.71L30 53.631l4.538 2.386.978-.71-.867-5.053 3.671-3.579-.373-1.15zM30 3.983c-8.756 0-15.879 7.123-15.879 15.879S21.244 35.74 30 35.74s15.879-7.123 15.879-15.88c0-8.755-7.123-15.878-15.879-15.878zM28.642 25.5l-6.279-6.279 2.486-2.486 3.793 3.793 6.509-6.51 2.486 2.486-8.995 8.995z"/></g><defs><clipPath id="clip0"><path fill="#fff" d="M0 0h60v60H0z"/></clipPath></defs></svg>