<svg width="26" height="25" fill="none" xmlns="http://www.w3.org/2000/svg"><g clip-path="url(#clip0_86:1025)" fill="#BB1219"><path d="M18.043 8.036H7.957L13 12.358l5.043-4.322z"/><path d="M13 13.393a.445.445 0 01-.29-.108L7.195 8.56v8.404h11.608V8.56l-5.513 4.725a.445.445 0 01-.291.108z"/><path d="M13 0C6.096 0 .5 5.596.5 12.5S6.096 25 13 25s12.5-5.596 12.5-12.5C25.492 5.6 19.9.008 13 0zm6.696 17.41c0 .247-.2.447-.446.447H6.75a.446.446 0 01-.446-.446V7.589c0-.246.2-.446.446-.446h12.5c.247 0 .446.2.446.446v9.822z"/></g><defs><clipPath id="clip0_86:1025"><path fill="#fff" transform="translate(.5)" d="M0 0h25v25H0z"/></clipPath></defs></svg>