<svg width="20" height="20" fill="none" xmlns="http://www.w3.org/2000/svg"><g clip-path="url(#clip0)" fill="#A2AAB2"><path d="M18.994 2.571l-.732-.732a3.434 3.434 0 00-4.857 0l-9.36 9.36a2.428 2.428 0 000 3.434l.488.489a2.512 2.512 0 003.434 0l6.911-6.911a.417.417 0 10-.589-.59l-6.91 6.911a1.65 1.65 0 01-2.257 0l-.488-.488a1.595 1.595 0 010-2.256l9.36-9.36a2.667 2.667 0 013.678 0l.733.733a2.602 2.602 0 010 3.678L7.967 17.277a3.608 3.608 0 01-5.1 0L1.89 16.3a3.608 3.608 0 010-5.101L9.878 3.21a.417.417 0 10-.59-.589L1.3 10.61a4.44 4.44 0 000 6.28l.977.976a4.44 4.44 0 006.28 0L18.993 7.428a3.434 3.434 0 000-4.857z"/><path d="M5.416 19.167a4.417 4.417 0 01-3.14-1.301L1.3 16.89a4.44 4.44 0 010-6.28l7.989-7.988a.417.417 0 11.589.59l-7.989 7.987a3.608 3.608 0 000 5.101l.977.977a3.608 3.608 0 005.1 0L18.405 6.839a2.602 2.602 0 000-3.678l-.732-.733a2.667 2.667 0 00-3.678 0l-9.36 9.36a1.595 1.595 0 000 2.256l.488.488a1.65 1.65 0 002.256 0l6.91-6.91a.417.417 0 11.59.589l-6.911 6.91a2.512 2.512 0 01-3.434 0l-.489-.488a2.428 2.428 0 010-3.434l9.36-9.36a3.434 3.434 0 014.857 0l.733.732a3.434 3.434 0 010 4.857L8.556 17.866a4.417 4.417 0 01-3.14 1.3z"/></g><defs><clipPath id="clip0"><path fill="#fff" d="M0 0h20v20H0z"/></clipPath></defs></svg>