<svg width="25" height="25" fill="none" xmlns="http://www.w3.org/2000/svg"><path d="M14.747 14.4l-.956 1.83a.447.447 0 01-.554.212 8.047 8.047 0 01-4.678-4.68.447.447 0 01.211-.553l1.83-.956-.577-3.27a2.232 2.232 0 00-3.327 1.946 9.386 9.386 0 009.375 9.375 2.233 2.233 0 001.946-3.326l-3.27-.578z" fill="#BB1219"/><path d="M12.5 0C5.596 0 0 5.596 0 12.5S5.596 25 12.5 25 25 19.404 25 12.5C24.992 5.6 19.4.008 12.5 0zm3.571 19.196C10.403 19.19 5.81 14.596 5.804 8.93a3.126 3.126 0 014.874-2.59c.1.068.168.173.19.293l.669 3.788a.446.446 0 01-.233.474l-1.759.918a7.152 7.152 0 003.644 3.647l.918-1.762a.446.446 0 01.473-.233l3.79.67a.44.44 0 01.291.19 3.125 3.125 0 01-2.59 4.872z" fill="#BB1219"/></svg>