<svg width="60" height="60" viewBox="0 0 60 60" fill="none" xmlns="http://www.w3.org/2000/svg">
<path d="M58.2422 3.51562C59.2138 3.51562 60 2.72941 60 1.75781C60 0.786211 59.2138 0 58.2422 0H30C29.0284 0 28.2422 0.786211 28.2422 1.75781C28.2422 2.72941 29.0284 3.51562 30 3.51562H38.7891V14.1797H37.0312C36.5644 14.1797 36.118 14.3651 35.7885 14.6947L28.7572 21.726C28.4276 22.0555 28.2422 22.5019 28.2422 22.9688V30C28.2422 30.4669 28.4276 30.9132 28.7572 31.2428L33.5156 36.0013V31.03L31.7578 29.2721V23.6966L37.7591 17.6953H50.4831L56.4844 23.6966V29.2721L54.7266 31.03V36.0013L59.485 31.2429C59.8146 30.9132 60 30.4669 60 30V22.9688C60 22.5019 59.8146 22.0555 59.485 21.726L52.4537 14.6947C52.1242 14.3651 51.6778 14.1797 51.2109 14.1797H49.4531V3.51562H58.2422Z" fill="#BB1219"/>
<path d="M52.8516 45.9375H7.14844C3.2652 45.9375 0 49.0854 0 52.9688C0 56.852 3.2652 60 7.14844 60H52.8516C56.7348 60 60 56.852 60 52.9688C60 49.0854 56.7348 45.9375 52.8516 45.9375ZM8.90625 54.7263C7.93523 54.7263 7.14844 53.9393 7.14844 52.9685C7.14844 51.9977 7.93523 51.2107 8.90625 51.2107C9.87703 51.2107 10.6641 51.9977 10.6641 52.9685C10.6641 53.9393 9.87703 54.7263 8.90625 54.7263ZM15.9375 54.7263C14.9665 54.7263 14.1797 53.9393 14.1797 52.9685C14.1797 51.9977 14.9665 51.2107 15.9375 51.2107C16.9083 51.2107 17.6953 51.9977 17.6953 52.9685C17.6953 53.9393 16.9083 54.7263 15.9375 54.7263ZM22.9688 54.7263C21.9977 54.7263 21.2109 53.9393 21.2109 52.9685C21.2109 51.9977 21.9977 51.2107 22.9688 51.2107C23.9395 51.2107 24.7266 51.9977 24.7266 52.9685C24.7266 53.9393 23.9395 54.7263 22.9688 54.7263ZM30 54.7263C29.029 54.7263 28.2422 53.9393 28.2422 52.9685C28.2422 51.9977 29.029 51.2107 30 51.2107C30.9708 51.2107 31.7578 51.9977 31.7578 52.9685C31.7578 53.9393 30.9708 54.7263 30 54.7263ZM37.0312 54.7263C36.0602 54.7263 35.2734 53.9393 35.2734 52.9685C35.2734 51.9977 36.0602 51.2107 37.0312 51.2107C38.002 51.2107 38.7891 51.9977 38.7891 52.9685C38.7891 53.9393 38.002 54.7263 37.0312 54.7263ZM44.0625 54.7263C43.0915 54.7263 42.3047 53.9393 42.3047 52.9685C42.3047 51.9977 43.0915 51.2107 44.0625 51.2107C45.0333 51.2107 45.8203 51.9977 45.8203 52.9685C45.8203 53.9393 45.0333 54.7263 44.0625 54.7263ZM51.0938 54.7263C50.1227 54.7263 49.3359 53.9393 49.3359 52.9685C49.3359 51.9977 50.1227 51.2107 51.0938 51.2107C52.0645 51.2107 52.8516 51.9977 52.8516 52.9685C52.8516 53.9393 52.0645 54.7263 51.0938 54.7263Z" fill="#BB1219"/>
<path d="M21.2109 28.2422H10.6641C9.69246 28.2422 8.90625 29.0284 8.90625 30V42.4219H22.9688V30C22.9688 29.0284 22.1825 28.2422 21.2109 28.2422Z" fill="#BB1219"/>
<path d="M49.4531 28.2422H38.7891C37.8175 28.2422 37.0312 29.0284 37.0312 30V42.4219H51.2109V30C51.2109 29.0284 50.4247 28.2422 49.4531 28.2422Z" fill="#BB1219"/>
</svg>
