<svg width="60" height="60" viewBox="0 0 60 60" fill="none" xmlns="http://www.w3.org/2000/svg">
<path d="M41.7997 47.6785C40.7869 47.688 39.8285 47.2197 39.2143 46.4141C39.0082 46.4387 38.7999 46.4423 38.5928 46.4261V58.3928L41.1641 56.4645C41.545 56.1783 42.0692 56.1783 42.45 56.4645L45.0213 58.3928V46.4261C44.8074 46.4439 44.5918 46.4397 44.3784 46.4141C43.7652 47.2176 42.81 47.6859 41.7997 47.6785Z" fill="#BB1219"/>
<path d="M0 49.8214C0 51.5965 1.43921 53.0357 3.21429 53.0357H36.4542V48.75H0L0 49.8214Z" fill="#BB1219"/>
<path d="M46.4036 39.1285C46.118 39.027 45.8883 38.8089 45.7727 38.529C45.6565 38.2486 45.6644 37.9326 45.7952 37.6585C45.9976 37.2337 45.9118 36.7272 45.5801 36.3935C45.2479 36.0597 44.742 35.9708 44.3162 36.1711C44.0426 36.3019 43.7261 36.3103 43.4457 36.1947C43.1647 36.0785 42.9471 35.8489 42.8451 35.5627C42.6887 35.1191 42.2691 34.8219 41.7988 34.8219C41.3279 34.8219 40.9083 35.1191 40.7519 35.5627C40.6504 35.8489 40.4323 36.0785 40.1519 36.1947C39.8709 36.3103 39.5544 36.3019 39.2808 36.1711C38.8544 35.9702 38.348 36.0597 38.0163 36.3935C37.6841 36.7278 37.5983 37.2347 37.8024 37.6595C37.9321 37.9331 37.9405 38.2491 37.8243 38.529C37.7087 38.8089 37.4801 39.0265 37.1944 39.1285C36.7503 39.2865 36.4531 39.7072 36.4531 40.1785C36.4531 40.6499 36.7503 41.0705 37.1944 41.2285C37.4801 41.3305 37.7092 41.5481 37.8248 41.8286C37.941 42.1085 37.9326 42.425 37.8024 42.6986C37.5994 43.1234 37.6852 43.6298 38.0174 43.9636C38.3491 44.2973 38.8549 44.3863 39.2808 44.1859C39.5544 44.0551 39.8709 44.0468 40.1519 44.1624C40.4323 44.2785 40.6504 44.5082 40.7519 44.7943C40.9083 45.238 41.3279 45.5351 41.7988 45.5351C42.2691 45.5351 42.6887 45.238 42.8451 44.7943C42.9471 44.5082 43.1647 44.2785 43.4457 44.1624C43.7261 44.0468 44.0426 44.0551 44.3162 44.1859C44.742 44.3863 45.2479 44.2973 45.5801 43.9636C45.9118 43.6298 45.9976 43.1234 45.7952 42.6986C45.6644 42.4244 45.6565 42.1085 45.7727 41.828C45.8883 41.5481 46.118 41.33 46.4036 41.2285C46.8467 41.0695 47.1428 40.6494 47.1428 40.1785C47.1428 39.7077 46.8467 39.2876 46.4036 39.1285Z" fill="#BB1219"/>
<path d="M8.57129 4.82146V46.6072H36.4541V45.417C35.7703 44.7123 35.4454 43.7345 35.5715 42.7609C34.7747 42.141 34.3091 41.1878 34.3091 40.1786C34.3091 39.1694 34.7747 38.2162 35.5715 37.5963C35.4449 36.596 35.7876 35.5931 36.4996 34.879C37.2116 34.1649 38.2134 33.8196 39.2143 33.9431C39.8326 33.1453 40.7848 32.6786 41.7939 32.6786C42.8031 32.6786 43.7558 33.1453 44.3742 33.9431C45.375 33.8191 46.3768 34.1644 47.0894 34.8785C47.8014 35.5931 48.1435 36.596 48.0169 37.5963C48.8137 38.2162 49.2793 39.1694 49.2793 40.1786C49.2793 41.1878 48.8137 42.141 48.0169 42.7609C48.1409 43.7204 47.826 44.6846 47.16 45.3856V52.8385C47.4974 52.9636 47.8542 53.03 48.2141 53.0358C49.9892 53.0358 51.4284 51.5965 51.4284 49.8215V4.82146C51.431 4.48769 51.4645 4.15496 51.5294 3.82694C51.5482 3.72545 51.5796 3.62919 51.6042 3.52926C51.6571 3.3111 51.724 3.09661 51.8035 2.8863C51.8454 2.77958 51.8904 2.67861 51.9385 2.57554C52.0301 2.38041 52.1326 2.19102 52.2472 2.00792C52.3026 1.91793 52.3539 1.8269 52.4172 1.74111C52.4475 1.69716 52.47 1.64903 52.502 1.60718H11.7856C10.0105 1.60718 8.57129 3.04639 8.57129 4.82146ZM46.0713 27.3215H27.857V25.1786H46.0713V27.3215ZM46.0713 21.9643H21.4284V19.8215H46.0713V21.9643ZM33.2141 8.03575H37.4999V10.1786H33.2141V8.03575ZM22.4999 8.03575H31.0713V10.1786H22.4999V8.03575ZM19.2856 13.3929H40.7141V15.5358H19.2856V13.3929ZM13.9284 19.8215H19.2856V21.9643H13.9284V19.8215ZM13.9284 25.1786H25.7141V27.3215H13.9284V25.1786ZM13.9284 30.5358H35.357V32.6786H13.9284V30.5358ZM13.9284 35.8929H32.1427V38.0358H13.9284V35.8929Z" fill="#BB1219"/>
<path d="M56.7856 1.60718C55.0105 1.60718 53.5713 3.04639 53.5713 4.82146V5.89289H59.9999V4.82146C59.9999 3.04639 58.5607 1.60718 56.7856 1.60718Z" fill="#BB1219"/>
</svg>
