<svg width="60" height="60" viewBox="0 0 60 60" fill="none" xmlns="http://www.w3.org/2000/svg">
<g clip-path="url(#clip0)">
<path d="M5.27344 24.6094H22.1235L28.6399 31.1257C28.9762 31.462 29.4258 31.6407 29.8833 31.6406C30.1097 31.6406 30.3381 31.5969 30.5556 31.5068C31.2124 31.2347 31.6407 30.5938 31.6407 29.8828V24.6094H35.7423C38.6501 24.6094 41.0157 22.2437 41.0157 19.3359V5.27344C41.0157 2.36566 38.6501 0 35.7423 0H5.27344C2.36566 0 0 2.36566 0 5.27344V19.3359C0 22.2437 2.36566 24.6094 5.27344 24.6094ZM8.78906 7.03125H32.2266C33.1973 7.03125 33.9844 7.81828 33.9844 8.78906C33.9844 9.75984 33.1973 10.5469 32.2266 10.5469H8.78906C7.81828 10.5469 7.03125 9.75984 7.03125 8.78906C7.03125 7.81828 7.81828 7.03125 8.78906 7.03125ZM8.78906 14.0625H32.2266C33.1973 14.0625 33.9844 14.8495 33.9844 15.8203C33.9844 16.7911 33.1973 17.5781 32.2266 17.5781H8.78906C7.81828 17.5781 7.03125 16.7911 7.03125 15.8203C7.03125 14.8495 7.81828 14.0625 8.78906 14.0625Z" fill="#BB1219"/>
<path d="M24.0234 39.8438H22.0888C21.8604 38.7232 21.4172 37.6804 20.8058 36.7582L22.1774 35.3868C22.8639 34.7004 22.8639 33.5873 22.1774 32.9009C21.4909 32.2144 20.378 32.2144 19.6915 32.9009L18.3199 34.2724C17.3978 33.6609 16.3549 33.2177 15.2345 32.9895V31.0547C15.2345 30.0839 14.4475 29.2969 13.4767 29.2969C12.5059 29.2969 11.7189 30.0839 11.7189 31.0547V32.9893C10.5984 33.2176 9.55559 33.6609 8.63344 34.2723L7.26187 32.9007C6.57551 32.2144 5.46246 32.2144 4.77598 32.9007C4.08961 33.5871 4.08961 34.7002 4.77598 35.3866L6.14754 36.7581C5.53605 37.6802 5.09285 38.7231 4.86457 39.8436H2.92969C1.95891 39.8436 1.17188 40.6307 1.17188 41.6014C1.17188 42.5722 1.95891 43.3593 2.92969 43.3593H4.86434C5.09273 44.4798 5.53594 45.5227 6.1473 46.4448L4.77574 47.8163C4.08926 48.5026 4.08926 49.6157 4.77574 50.3021C5.1191 50.6455 5.56887 50.8171 6.01875 50.8171C6.46852 50.8171 6.91852 50.6454 7.26164 50.3021L8.6332 48.9306C9.55535 49.5421 10.5982 49.9853 11.7186 50.2136V52.1484C11.7186 53.1192 12.5057 53.9062 13.4764 53.9062C14.4472 53.9062 15.2343 53.1192 15.2343 52.1484V50.2138C16.3547 49.9855 17.3975 49.5422 18.3197 48.9308L19.6912 50.3024C20.0345 50.6456 20.4844 50.8173 20.9341 50.8173C21.3839 50.8173 21.8339 50.6456 22.1771 50.3024C22.8635 49.616 22.8635 48.503 22.1771 47.8165L20.8056 46.445C21.4171 45.5229 21.8603 44.48 22.0886 43.3595H24.0234C24.9942 43.3595 25.7812 42.5725 25.7812 41.6017C25.7812 40.6309 24.9942 39.8438 24.0234 39.8438ZM13.4766 43.3594C12.5058 43.3594 11.7188 42.5723 11.7188 41.6016C11.7188 40.6308 12.5058 39.8438 13.4766 39.8438C14.4473 39.8438 15.2344 40.6308 15.2344 41.6016C15.2344 42.5723 14.4473 43.3594 13.4766 43.3594Z" fill="#BB1219"/>
<path d="M59.1208 46.644L57.6794 45.8118C57.7477 45.2644 57.7821 44.7188 57.7821 44.1797C57.7821 43.6406 57.7477 43.095 57.6794 42.5476L59.1208 41.7154C59.9615 41.23 60.2495 40.1549 59.7641 39.3142L56.2485 33.2249C55.7631 32.3842 54.688 32.096 53.8473 32.5815L52.3997 33.4173C51.5222 32.7519 50.5792 32.2034 49.579 31.7767V30.1172C49.579 29.1464 48.792 28.3594 47.8212 28.3594H40.7899C39.8192 28.3594 39.0321 29.1464 39.0321 30.1172V31.7766C38.0319 32.2032 37.0889 32.7518 36.2114 33.4172L34.7639 32.5814C33.9232 32.096 32.8481 32.3841 32.3627 33.2248L28.8471 39.3141C28.3617 40.1548 28.6498 41.2298 29.4905 41.7152L30.9319 42.5475C30.8636 43.0949 30.8291 43.6405 30.8291 44.1796C30.8291 44.7186 30.8636 45.2643 30.9319 45.8116L29.4905 46.6439C28.6498 47.1293 28.3617 48.2044 28.8471 49.0451L32.3627 55.1344C32.8481 55.9752 33.9232 56.2632 34.764 55.7777L36.2115 54.942C37.0893 55.6075 38.032 56.1559 39.0322 56.5826V58.2422C39.0322 59.213 39.8193 60 40.7901 60H47.8213C48.7921 60 49.5791 59.213 49.5791 58.2422V56.5827C50.5793 56.156 51.5221 55.6076 52.3998 54.9421L53.8473 55.7779C54.688 56.2632 55.7631 55.9752 56.2485 55.1345L59.7641 49.0452C60.2495 48.2045 59.9615 47.1294 59.1208 46.644ZM44.3056 49.4531C41.3978 49.4531 39.0321 47.0875 39.0321 44.1797C39.0321 41.2719 41.3978 38.9062 44.3056 38.9062C47.2133 38.9062 49.579 41.2719 49.579 44.1797C49.579 47.0875 47.2133 49.4531 44.3056 49.4531Z" fill="#BB1219"/>
</g>
<defs>
<clipPath id="clip0">
<rect width="60" height="60" fill="white"/>
</clipPath>
</defs>
</svg>
