<svg width="60" height="60" viewBox="0 0 60 60" fill="none" xmlns="http://www.w3.org/2000/svg">
<path d="M10.5479 52.9688V59.8221C13.9865 59.1213 16.7004 56.4074 17.4012 52.9688H10.5479Z" fill="#BB1219"/>
<path d="M31.7563 52.9688V59.8221C35.195 59.1213 37.9089 56.4074 38.6097 52.9688H31.7563Z" fill="#BB1219"/>
<path d="M58.2408 38.9062H52.9674V30C52.9674 29.0284 52.1812 28.2422 51.2096 28.2422H31.7564V22.8516H40.5455C41.5171 22.8516 42.3033 22.0654 42.3033 21.0938V17.5781H17.6939V21.0938C17.6939 22.0654 18.4802 22.8516 19.4518 22.8516H28.2408V28.2422H8.79004C7.81844 28.2422 7.03223 29.0284 7.03223 30V38.9062H1.75879C0.787187 38.9062 0.000976562 39.6925 0.000976562 40.6641V58.2422C0.000976562 59.2138 0.787187 60 1.75879 60H7.03223V51.2109C7.03223 50.2393 7.81844 49.4531 8.79004 49.4531H17.5791V40.6641C17.5791 39.6925 16.7929 38.9062 15.8213 38.9062H10.5479V31.7578H28.2408V38.9062H22.9674C21.9958 38.9062 21.2096 39.6925 21.2096 40.6641V58.2422C21.2096 59.2138 21.9958 60 22.9674 60H28.2408V51.2109C28.2408 50.2393 29.027 49.4531 29.9986 49.4531H38.7877V40.6641C38.7877 39.6925 38.0015 38.9062 37.0299 38.9062H31.7564V31.7578H49.4518V38.9062H44.1783C43.2067 38.9062 42.4205 39.6925 42.4205 40.6641V58.2422C42.4205 59.2138 43.2067 60 44.1783 60H49.4518V51.2109C49.4518 50.2393 50.238 49.4531 51.2096 49.4531H59.9986V40.6641C59.9986 39.6925 59.2124 38.9062 58.2408 38.9062Z" fill="#BB1219"/>
<path d="M59.8206 52.9688H52.9673V59.8221C56.4058 59.1213 59.1199 56.4074 59.8206 52.9688Z" fill="#BB1219"/>
<path d="M17.6938 8.78906H42.3032V14.0625H17.6938V8.78906Z" fill="#BB1219"/>
<path d="M42.3032 1.75781C42.3032 0.786211 41.517 0 40.5454 0H19.4517C18.4801 0 17.6938 0.786211 17.6938 1.75781V5.27344H42.3032V1.75781Z" fill="#BB1219"/>
</svg>
