<svg width="26" height="25" viewBox="0 0 26 25" fill="none" xmlns="http://www.w3.org/2000/svg">
<g clip-path="url(#clip0_86:1025)">
<path d="M18.0432 8.03564H7.95674L13 12.3585L18.0432 8.03564Z" fill="#BB1219"/>
<path d="M13 13.3929C12.8934 13.3929 12.7903 13.3548 12.7094 13.2852L7.19643 8.55981V16.9644H18.8036V8.55981L13.2906 13.2852C13.2097 13.3548 13.1066 13.3929 13 13.3929Z" fill="#BB1219"/>
<path d="M13 0C6.09649 0 0.5 5.59649 0.5 12.5C0.5 19.4035 6.09649 25 13 25C19.9035 25 25.5 19.4035 25.5 12.5C25.4922 5.59976 19.9002 0.00784738 13 0ZM19.6964 17.4107C19.6964 17.6573 19.4965 17.8571 19.25 17.8571H6.75C6.50346 17.8571 6.30357 17.6573 6.30357 17.4107V7.58929C6.30357 7.34275 6.50346 7.14286 6.75 7.14286H19.25C19.4965 7.14286 19.6964 7.34275 19.6964 7.58929V17.4107Z" fill="#BB1219"/>
</g>
<defs>
<clipPath id="clip0_86:1025">
<rect width="25" height="25" fill="white" transform="translate(0.5)"/>
</clipPath>
</defs>
</svg>
