<svg width="20" height="20" viewBox="0 0 20 20" fill="none" xmlns="http://www.w3.org/2000/svg">
<g clip-path="url(#clip0)">
<path d="M18.9941 2.57139L18.2616 1.83888C16.9205 0.497723 14.7461 0.497723 13.4049 1.83884C13.4049 1.83884 13.4049 1.83884 13.4049 1.83888L4.04471 11.199C3.09638 12.1474 3.09638 13.685 4.04471 14.6333L4.53304 15.1216C5.499 16.0264 7.00133 16.0264 7.96728 15.1216L14.8782 8.21068C15.0437 8.05079 15.0483 7.78703 14.8885 7.62148C14.7286 7.45597 14.4648 7.4514 14.2993 7.61125C14.2958 7.61461 14.2924 7.61801 14.289 7.62148L7.37809 14.5324C6.7434 15.1263 5.75693 15.1263 5.12223 14.5324L4.6339 14.0441C4.01096 13.4212 4.01089 12.4113 4.63375 11.7884C4.63379 11.7884 4.63387 11.7883 4.6339 11.7882L13.994 2.42803C15.024 1.44708 16.6425 1.44708 17.6724 2.42803L18.4049 3.16054C19.4203 4.17646 19.4203 5.82302 18.4049 6.83893L7.96724 17.2766C6.55851 18.6848 4.27507 18.6848 2.86633 17.2766L1.88964 16.3008C0.48141 14.892 0.48141 12.6086 1.88964 11.1999L9.87814 3.21141C10.0436 3.05152 10.0483 2.78776 9.88837 2.62222C9.72849 2.4567 9.46473 2.45209 9.29918 2.61198C9.2957 2.61534 9.29231 2.61874 9.28895 2.62222L1.30049 10.6099C-0.433489 12.3438 -0.433489 15.1551 1.30045 16.8891C1.30045 16.8891 1.30049 16.8891 1.30049 16.8891L2.27718 17.8658C4.01112 19.5998 6.82242 19.5998 8.5564 17.8659C8.5564 17.8658 8.55643 17.8658 8.55643 17.8658L18.9941 7.42812C20.3353 6.087 20.3353 3.91255 18.9941 2.57139C18.9942 2.57139 18.9942 2.57139 18.9941 2.57139Z" fill="#A2AAB2"/>
<path d="M5.41594 19.1667C4.23764 19.1693 3.10715 18.7009 2.27589 17.8658L1.30001 16.89C-0.433962 15.156 -0.434001 12.3447 1.29997 10.6108L1.30001 10.6107L9.28851 2.62222C9.44839 2.4567 9.71215 2.45209 9.8777 2.61198C10.0432 2.77187 10.0478 3.03562 9.88793 3.20117C9.88457 3.20465 9.88117 3.20805 9.8777 3.21141L1.8892 11.199C0.480975 12.6078 0.480975 14.8912 1.8892 16.3L2.8659 17.2767C4.27463 18.6849 6.55807 18.6849 7.9668 17.2767L18.4045 6.83897C19.4198 5.82305 19.4198 4.1765 18.4045 3.16058L17.672 2.42807C16.642 1.44712 15.0235 1.44712 13.9936 2.42807L4.63339 11.7882C4.01045 12.4111 4.01037 13.421 4.63323 14.0439C4.63327 14.0439 4.63335 14.044 4.63339 14.0441L5.12172 14.5324C5.75642 15.1263 6.74288 15.1263 7.37758 14.5324L14.2885 7.62145C14.4484 7.45594 14.7122 7.45133 14.8777 7.61121C15.0432 7.7711 15.0478 8.03485 14.8879 8.2004C14.8846 8.20388 14.8812 8.20728 14.8777 8.21064L7.9668 15.1216C7.00085 16.0264 5.49852 16.0264 4.53257 15.1216L4.04424 14.6333C3.0959 13.685 3.0959 12.1474 4.04424 11.199L13.4044 1.83888C14.7456 0.497723 16.92 0.497723 18.2611 1.83884C18.2611 1.83884 18.2611 1.83884 18.2612 1.83888L18.9937 2.57139C20.3348 3.91255 20.3348 6.08697 18.9937 7.42812C18.9937 7.42812 18.9937 7.42812 18.9937 7.42816L8.55599 17.8658C7.72473 18.7009 6.59424 19.1693 5.41594 19.1667Z" fill="#A2AAB2"/>
</g>
<defs>
<clipPath id="clip0">
<rect width="20" height="20" fill="white"/>
</clipPath>
</defs>
</svg>
